{
    "asset" : {
        "generator" : "Khronos glTF Blender I/O v1.2.75",
        "version" : "2.0"
    },
    "scene" : 0,
    "scenes" : [
        {
            "name" : "Scene",
            "nodes" : [
                0,
                1,
                2
            ]
        }
    ],
    "nodes" : [
        {
            "name" : "Light",
            "rotation" : [
                0.16907575726509094,
                0.7558803558349609,
                -0.27217137813568115,
                0.570947527885437
            ],
            "translation" : [
                4.076245307922363,
                5.903861999511719,
                -1.0054539442062378
            ]
        },
        {
            "name" : "Camera",
            "rotation" : [
                0.483536034822464,
                0.33687159419059753,
                -0.20870360732078552,
                0.7804827094078064
            ],
            "translation" : [
                7.358891487121582,
                4.958309173583984,
                6.925790786743164
            ]
        },
        {
            "mesh" : 0,
            "name" : "compostboxes",
            "rotation" : [
                0.7071068286895752,
                0,
                0,
                0.7071067094802856
            ]
        }
    ],
    "materials" : [
        {
            "doubleSided" : true,
            "emissiveFactor" : [
                0,
                0,
                0
            ],
            "name" : "_Stucco2_",
            "pbrMetallicRoughness" : {
                "baseColorFactor" : [
                    0.5294119715690613,
                    0.450980007648468,
                    0.34902000427246094,
                    1
                ],
                "metallicFactor" : 0,
                "roughnessFactor" : 1
            }
        },
        {
            "doubleSided" : true,
            "emissiveFactor" : [
                0,
                0,
                0
            ],
            "name" : "_OSB__chip_board__1",
            "pbrMetallicRoughness" : {
                "baseColorTexture" : {
                    "index" : 0,
                    "texCoord" : 0
                },
                "metallicFactor" : 0,
                "roughnessFactor" : 1
            }
        },
        {
            "doubleSided" : true,
            "emissiveFactor" : [
                0,
                0,
                0
            ],
            "name" : "_Wood_cherry_10",
            "pbrMetallicRoughness" : {
                "baseColorFactor" : [
                    0.5960779786109924,
                    0.33725500106811523,
                    0.1647060066461563,
                    1
                ],
                "metallicFactor" : 0,
                "roughnessFactor" : 1
            }
        },
        {
            "doubleSided" : true,
            "emissiveFactor" : [
                0,
                0,
                0
            ],
            "name" : "_19",
            "pbrMetallicRoughness" : {
                "baseColorFactor" : [
                    0.6000000238418579,
                    0.6000000238418579,
                    0.6000000238418579,
                    1
                ],
                "metallicFactor" : 0,
                "roughnessFactor" : 1
            }
        }
    ],
    "meshes" : [
        {
            "name" : "compostboxes",
            "primitives" : [
                {
                    "attributes" : {
                        "POSITION" : 0,
                        "NORMAL" : 1,
                        "TEXCOORD_0" : 2
                    },
                    "indices" : 3,
                    "material" : 0
                },
                {
                    "attributes" : {
                        "POSITION" : 4,
                        "NORMAL" : 5,
                        "TEXCOORD_0" : 6
                    },
                    "indices" : 7,
                    "material" : 1
                },
                {
                    "attributes" : {
                        "POSITION" : 8,
                        "NORMAL" : 9,
                        "TEXCOORD_0" : 10
                    },
                    "indices" : 11,
                    "material" : 2
                },
                {
                    "attributes" : {
                        "POSITION" : 12,
                        "NORMAL" : 13,
                        "TEXCOORD_0" : 14
                    },
                    "indices" : 15,
                    "material" : 3
                }
            ]
        }
    ],
    "textures" : [
        {
            "source" : 0
        }
    ],
    "images" : [
        {
            "bufferView" : 8,
            "mimeType" : "image/jpeg",
            "name" : "_OSB__chip_board__1"
        }
    ],
    "accessors" : [
        {
            "bufferView" : 0,
            "componentType" : 5126,
            "count" : 4524,
            "max" : [
                445.5169982910156,
                -19.4148006439209,
                -5.582200050354004
            ],
            "min" : [
                250.16299438476562,
                -351.1650085449219,
                -63.27629852294922
            ],
            "type" : "VEC3"
        },
        {
            "bufferView" : 1,
            "componentType" : 5126,
            "count" : 4524,
            "type" : "VEC3"
        },
        {
            "bufferView" : 2,
            "componentType" : 5126,
            "count" : 4524,
            "type" : "VEC2"
        },
        {
            "bufferView" : 3,
            "componentType" : 5123,
            "count" : 6624,
            "type" : "SCALAR"
        },
        {
            "bufferView" : 4,
            "componentType" : 5126,
            "count" : 8811,
            "max" : [
                544.4520263671875,
                -4.405910015106201,
                -7.719429969787598
            ],
            "min" : [
                151.2530059814453,
                -366.2829895019531,
                -130.07200622558594
            ],
            "type" : "VEC3"
        },
        {
            "bufferView" : 5,
            "componentType" : 5126,
            "count" : 8811,
            "type" : "VEC3"
        },
        {
            "bufferView" : 6,
            "componentType" : 5126,
            "count" : 8811,
            "type" : "VEC2"
        },
        {
            "bufferView" : 7,
            "componentType" : 5123,
            "count" : 18000,
            "type" : "SCALAR"
        },
        {
            "bufferView" : 9,
            "componentType" : 5126,
            "count" : 280,
            "max" : [
                497.6099853515625,
                -158.01499938964844,
                -24.876300811767578
            ],
            "min" : [
                197.93499755859375,
                -212.75,
                -126.46299743652344
            ],
            "type" : "VEC3"
        },
        {
            "bufferView" : 10,
            "componentType" : 5126,
            "count" : 280,
            "type" : "VEC3"
        },
        {
            "bufferView" : 11,
            "componentType" : 5126,
            "count" : 280,
            "type" : "VEC2"
        },
        {
            "bufferView" : 12,
            "componentType" : 5123,
            "count" : 552,
            "type" : "SCALAR"
        },
        {
            "bufferView" : 13,
            "componentType" : 5126,
            "count" : 446,
            "max" : [
                503.072998046875,
                -142.75599670410156,
                0.4037800133228302
            ],
            "min" : [
                192.48300170898438,
                -228.01400756835938,
                -36.26539993286133
            ],
            "type" : "VEC3"
        },
        {
            "bufferView" : 14,
            "componentType" : 5126,
            "count" : 446,
            "type" : "VEC3"
        },
        {
            "bufferView" : 15,
            "componentType" : 5126,
            "count" : 446,
            "type" : "VEC2"
        },
        {
            "bufferView" : 16,
            "componentType" : 5123,
            "count" : 558,
            "type" : "SCALAR"
        }
    ],
    "bufferViews" : [
        {
            "buffer" : 0,
            "byteLength" : 54288,
            "byteOffset" : 0
        },
        {
            "buffer" : 0,
            "byteLength" : 54288,
            "byteOffset" : 54288
        },
        {
            "buffer" : 0,
            "byteLength" : 36192,
            "byteOffset" : 108576
        },
        {
            "buffer" : 0,
            "byteLength" : 13248,
            "byteOffset" : 144768
        },
        {
            "buffer" : 0,
            "byteLength" : 105732,
            "byteOffset" : 158016
        },
        {
            "buffer" : 0,
            "byteLength" : 105732,
            "byteOffset" : 263748
        },
        {
            "buffer" : 0,
            "byteLength" : 70488,
            "byteOffset" : 369480
        },
        {
            "buffer" : 0,
            "byteLength" : 36000,
            "byteOffset" : 439968
        },
        {
            "buffer" : 0,
            "byteLength" : 11009,
            "byteOffset" : 475968
        },
        {
            "buffer" : 0,
            "byteLength" : 3360,
            "byteOffset" : 486980
        },
        {
            "buffer" : 0,
            "byteLength" : 3360,
            "byteOffset" : 490340
        },
        {
            "buffer" : 0,
            "byteLength" : 2240,
            "byteOffset" : 493700
        },
        {
            "buffer" : 0,
            "byteLength" : 1104,
            "byteOffset" : 495940
        },
        {
            "buffer" : 0,
            "byteLength" : 5352,
            "byteOffset" : 497044
        },
        {
            "buffer" : 0,
            "byteLength" : 5352,
            "byteOffset" : 502396
        },
        {
            "buffer" : 0,
            "byteLength" : 3568,
            "byteOffset" : 507748
        },
        {
            "buffer" : 0,
            "byteLength" : 1116,
            "byteOffset" : 511316
        }
    ],
    "buffers" : [
        {
            "byteLength" : 512432,
            "uri" : "data:application/octet-stream;base64,"
        }
    ]
}
