{
    "asset" : {
        "generator" : "Khronos glTF Blender I/O v1.2.75",
        "version" : "2.0"
    },
    "scene" : 0,
    "scenes" : [
        {
            "name" : "Scene",
            "nodes" : [
                0,
                1,
                2,
                3
            ]
        }
    ],
    "nodes" : [
        {
            "name" : "Light",
            "rotation" : [
                0.16907575726509094,
                0.7558803558349609,
                -0.27217137813568115,
                0.570947527885437
            ],
            "translation" : [
                4.076245307922363,
                5.903861999511719,
                -1.0054539442062378
            ]
        },
        {
            "name" : "Camera",
            "rotation" : [
                0.483536034822464,
                0.33687159419059753,
                -0.20870360732078552,
                0.7804827094078064
            ],
            "translation" : [
                7.358891487121582,
                4.958309173583984,
                6.925790786743164
            ]
        },
        {
            "name" : "compostbin",
            "rotation" : [
                0.7071068286895752,
                0,
                0,
                0.7071067094802856
            ]
        },
        {
            "mesh" : 0,
            "name" : "compostbin.001",
            "rotation" : [
                0.7071068286895752,
                0,
                0,
                0.7071067094802856
            ],
            "scale" : [
                100,
                100,
                100
            ]
        }
    ],
    "materials" : [
        {
            "doubleSided" : true,
            "emissiveFactor" : [
                0,
                0,
                0
            ],
            "name" : "Vegetation_Grass_Artificial",
            "pbrMetallicRoughness" : {
                "baseColorTexture" : {
                    "index" : 0,
                    "texCoord" : 0
                },
                "metallicFactor" : 0,
                "roughnessFactor" : 1
            }
        },
        {
            "doubleSided" : true,
            "emissiveFactor" : [
                0,
                0,
                0
            ],
            "name" : "Wood__Floor",
            "pbrMetallicRoughness" : {
                "baseColorTexture" : {
                    "index" : 1,
                    "texCoord" : 0
                },
                "metallicFactor" : 0,
                "roughnessFactor" : 1
            }
        },
        {
            "doubleSided" : true,
            "emissiveFactor" : [
                0,
                0,
                0
            ],
            "name" : "Wood_Lumber_ButtJoined",
            "pbrMetallicRoughness" : {
                "baseColorTexture" : {
                    "index" : 2,
                    "texCoord" : 0
                },
                "metallicFactor" : 0,
                "roughnessFactor" : 1
            }
        },
        {
            "doubleSided" : true,
            "emissiveFactor" : [
                0,
                0,
                0
            ],
            "name" : "Wood_Bamboo_Medium",
            "pbrMetallicRoughness" : {
                "baseColorTexture" : {
                    "index" : 3,
                    "texCoord" : 0
                },
                "metallicFactor" : 0,
                "roughnessFactor" : 1
            }
        },
        {
            "doubleSided" : true,
            "emissiveFactor" : [
                0,
                0,
                0
            ],
            "name" : "Vegetation_Blur3",
            "pbrMetallicRoughness" : {
                "baseColorFactor" : [
                    0.37254899740219116,
                    0.5294119715690613,
                    0.34117600321769714,
                    1
                ],
                "metallicFactor" : 0,
                "roughnessFactor" : 1
            }
        }
    ],
    "meshes" : [
        {
            "name" : "compostbin.001",
            "primitives" : [
                {
                    "attributes" : {
                        "POSITION" : 0,
                        "NORMAL" : 1,
                        "TEXCOORD_0" : 2
                    },
                    "indices" : 3,
                    "material" : 0
                },
                {
                    "attributes" : {
                        "POSITION" : 4,
                        "NORMAL" : 5,
                        "TEXCOORD_0" : 6
                    },
                    "indices" : 7,
                    "material" : 1
                },
                {
                    "attributes" : {
                        "POSITION" : 8,
                        "NORMAL" : 9,
                        "TEXCOORD_0" : 10
                    },
                    "indices" : 11,
                    "material" : 2
                },
                {
                    "attributes" : {
                        "POSITION" : 12,
                        "NORMAL" : 13,
                        "TEXCOORD_0" : 14
                    },
                    "indices" : 15,
                    "material" : 3
                },
                {
                    "attributes" : {
                        "POSITION" : 16,
                        "NORMAL" : 17,
                        "TEXCOORD_0" : 18
                    },
                    "indices" : 19,
                    "material" : 4
                }
            ]
        }
    ],
    "textures" : [
        {
            "source" : 0
        },
        {
            "source" : 1
        },
        {
            "source" : 2
        },
        {
            "source" : 3
        }
    ],
    "images" : [
        {
            "bufferView" : 4,
            "mimeType" : "image/jpeg",
            "name" : "Vegetation_Grass_Artificial"
        },
        {
            "bufferView" : 9,
            "mimeType" : "image/jpeg",
            "name" : "Wood__Floor"
        },
        {
            "bufferView" : 14,
            "mimeType" : "image/jpeg",
            "name" : "Wood_Lumber_ButtJoined"
        },
        {
            "bufferView" : 19,
            "mimeType" : "image/jpeg",
            "name" : "Wood_Bamboo_Medium"
        }
    ],
    "accessors" : [
        {
            "bufferView" : 0,
            "componentType" : 5126,
            "count" : 48,
            "max" : [
                -1.282979965209961,
                1.3774000406265259,
                -1.3091499828372499e-15
            ],
            "min" : [
                -3.307260036468506,
                -0.6468799710273743,
                -1.7693999883978614e-14
            ],
            "type" : "VEC3"
        },
        {
            "bufferView" : 1,
            "componentType" : 5126,
            "count" : 48,
            "type" : "VEC3"
        },
        {
            "bufferView" : 2,
            "componentType" : 5126,
            "count" : 48,
            "type" : "VEC2"
        },
        {
            "bufferView" : 3,
            "componentType" : 5123,
            "count" : 144,
            "type" : "SCALAR"
        },
        {
            "bufferView" : 5,
            "componentType" : 5126,
            "count" : 64,
            "max" : [
                -1.282979965209961,
                1.3774000406265259,
                -1.3091499828372499e-15
            ],
            "min" : [
                -3.284060001373291,
                1.2536499500274658,
                -0.5
            ],
            "type" : "VEC3"
        },
        {
            "bufferView" : 6,
            "componentType" : 5126,
            "count" : 64,
            "type" : "VEC3"
        },
        {
            "bufferView" : 7,
            "componentType" : 5126,
            "count" : 64,
            "type" : "VEC2"
        },
        {
            "bufferView" : 8,
            "componentType" : 5123,
            "count" : 108,
            "type" : "SCALAR"
        },
        {
            "bufferView" : 10,
            "componentType" : 5126,
            "count" : 256,
            "max" : [
                -1.3093600273132324,
                1.3510299921035767,
                -1.354390012550102e-15
            ],
            "min" : [
                -3.2808799743652344,
                -0.6204990148544312,
                -0.5
            ],
            "type" : "VEC3"
        },
        {
            "bufferView" : 11,
            "componentType" : 5126,
            "count" : 256,
            "type" : "VEC3"
        },
        {
            "bufferView" : 12,
            "componentType" : 5126,
            "count" : 256,
            "type" : "VEC2"
        },
        {
            "bufferView" : 13,
            "componentType" : 5123,
            "count" : 600,
            "type" : "SCALAR"
        },
        {
            "bufferView" : 15,
            "componentType" : 5126,
            "count" : 64,
            "max" : [
                -1.3061800003051758,
                -0.5231199860572815,
                -1.4903199541013408e-15
            ],
            "min" : [
                -3.307260036468506,
                -0.6468799710273743,
                -0.5
            ],
            "type" : "VEC3"
        },
        {
            "bufferView" : 16,
            "componentType" : 5126,
            "count" : 64,
            "type" : "VEC3"
        },
        {
            "bufferView" : 17,
            "componentType" : 5126,
            "count" : 64,
            "type" : "VEC2"
        },
        {
            "bufferView" : 18,
            "componentType" : 5123,
            "count" : 108,
            "type" : "SCALAR"
        },
        {
            "bufferView" : 20,
            "componentType" : 5126,
            "count" : 184,
            "max" : [
                -1.3609800338745117,
                1.302489995956421,
                -0.30128398537635803
            ],
            "min" : [
                -3.232219934463501,
                -0.5687580108642578,
                -0.6812840104103088
            ],
            "type" : "VEC3"
        },
        {
            "bufferView" : 21,
            "componentType" : 5126,
            "count" : 184,
            "type" : "VEC3"
        },
        {
            "bufferView" : 22,
            "componentType" : 5126,
            "count" : 184,
            "type" : "VEC2"
        },
        {
            "bufferView" : 23,
            "componentType" : 5123,
            "count" : 264,
            "type" : "SCALAR"
        }
    ],
    "bufferViews" : [
        {
            "buffer" : 0,
            "byteLength" : 576,
            "byteOffset" : 0
        },
        {
            "buffer" : 0,
            "byteLength" : 576,
            "byteOffset" : 576
        },
        {
            "buffer" : 0,
            "byteLength" : 384,
            "byteOffset" : 1152
        },
        {
            "buffer" : 0,
            "byteLength" : 288,
            "byteOffset" : 1536
        },
        {
            "buffer" : 0,
            "byteLength" : 17796,
            "byteOffset" : 1824
        },
        {
            "buffer" : 0,
            "byteLength" : 768,
            "byteOffset" : 19620
        },
        {
            "buffer" : 0,
            "byteLength" : 768,
            "byteOffset" : 20388
        },
        {
            "buffer" : 0,
            "byteLength" : 512,
            "byteOffset" : 21156
        },
        {
            "buffer" : 0,
            "byteLength" : 216,
            "byteOffset" : 21668
        },
        {
            "buffer" : 0,
            "byteLength" : 13026,
            "byteOffset" : 21884
        },
        {
            "buffer" : 0,
            "byteLength" : 3072,
            "byteOffset" : 34912
        },
        {
            "buffer" : 0,
            "byteLength" : 3072,
            "byteOffset" : 37984
        },
        {
            "buffer" : 0,
            "byteLength" : 2048,
            "byteOffset" : 41056
        },
        {
            "buffer" : 0,
            "byteLength" : 1200,
            "byteOffset" : 43104
        },
        {
            "buffer" : 0,
            "byteLength" : 9037,
            "byteOffset" : 44304
        },
        {
            "buffer" : 0,
            "byteLength" : 768,
            "byteOffset" : 53344
        },
        {
            "buffer" : 0,
            "byteLength" : 768,
            "byteOffset" : 54112
        },
        {
            "buffer" : 0,
            "byteLength" : 512,
            "byteOffset" : 54880
        },
        {
            "buffer" : 0,
            "byteLength" : 216,
            "byteOffset" : 55392
        },
        {
            "buffer" : 0,
            "byteLength" : 8600,
            "byteOffset" : 55608
        },
        {
            "buffer" : 0,
            "byteLength" : 2208,
            "byteOffset" : 64208
        },
        {
            "buffer" : 0,
            "byteLength" : 2208,
            "byteOffset" : 66416
        },
        {
            "buffer" : 0,
            "byteLength" : 1472,
            "byteOffset" : 68624
        },
        {
            "buffer" : 0,
            "byteLength" : 528,
            "byteOffset" : 70096
        }
    ],
    "buffers" : [
        {
            "byteLength" : 70624,
            "uri" : "data:application/octet-stream;base64,"
        }
    ]
}
