# Alias OBJ Model File
# Exported from SketchUp, (c) 2000-2012 Trimble Navigation Limited
# File units = centimeters

mtllib House2.mtl

g Mesh1 simple_house_2_1 Model

usemtl Wood_Board_Cork
v 27.6947 5 -111.174
vt -25.4938 0
vn 0 -1 -0
v -619.847 5 -111.174
vt 0 0
v -619.847 5 -895.399
vt 0 30.875
v -375.725 5 -895.399
vt -9.6111 30.875
v -375.725 5 -869.047
vt -9.6111 29.8375
v -193.759 5 -869.047
vt -16.7751 29.8375
v -193.759 5 -895.399
vt -16.7751 30.875
v 27.6947 5 -895.399
vt -25.4938 30.875
f 1/1/1 2/2/1 3/3/1 4/4/1 5/5/1 6/6/1 7/7/1 8/8/1 

vt 25.4938 0
vn 0 0 1
v 27.6947 422.694 -111.174
vt 25.4938 16.4447
v -619.847 414.341 -111.174
vt -1.10155e-15 16.1158
f 1/9/2 9/10/2 10/11/2 2/2/2 

vt 30.875 0
vn 1 0 -0
v 27.6947 422.694 -895.399
vt 30.875 16.4447
vt 0 16.4447
f 8/12/3 11/13/3 9/14/3 1/2/3 

vn 0 0 -1
v -38.3631 236.729 -895.399
vt -22.893 9.12318
vt -25.4938 16.4447
f 8/1/4 12/15/4 11/16/4

v -169.808 236.729 -895.399
vt -17.718 9.12318
f 12/15/4 8/1/4 13/17/4

vt -16.7751 0
f 7/18/4 13/17/4 8/1/4

v -193.759 299.427 -895.399
vt -16.7751 11.5916
f 13/17/4 7/18/4 14/19/4

vt -30.875 11.5916
vn -1 0 -0
vt -30.875 0
vt -29.8375 0
v -193.759 299.427 -869.047
vt -29.8375 11.5916
f 14/20/5 7/21/5 6/22/5 15/23/5 

usemtl Wood_Veneer_02
vt -13.9793 0
v -346.362 161.301 -869.047
vt -8.9726 5.12798
vt -13.9793 9.65968
f 6/24/4 16/25/4 15/26/4

v -348.499 159.661 -869.047
vt -8.90249 5.07418
f 16/25/4 6/24/4 17/27/4

v -350.987 158.63 -869.047
vt -8.82084 5.04036
f 17/27/4 6/24/4 18/28/4

v -353.658 158.278 -869.047
vt -8.73322 5.02882
f 18/28/4 6/24/4 19/29/4

v -356.329 158.63 -869.047
vt -8.6456 5.04036
f 6/24/4 20/30/4 19/29/4

v -358.817 159.661 -869.047
vt -8.56395 5.07418
f 6/24/4 21/31/4 20/30/4

v -360.954 161.301 -869.047
vt -8.49383 5.12798
f 6/24/4 22/32/4 21/31/4

vt -8.00925 0
f 5/33/4 22/32/4 6/24/4

v -362.594 163.438 -869.047
vt -8.44003 5.19809
f 22/32/4 5/33/4 23/34/4

v -363.625 165.927 -869.047
vt -8.40621 5.27974
f 23/34/4 5/33/4 24/35/4

v -363.977 168.597 -869.047
vt -8.39468 5.36736
f 24/35/4 5/33/4 25/36/4

v -375.725 299.427 -869.047
vt -8.00925 9.65968
f 25/36/4 5/33/4 26/37/4

usemtl Wood_Board_Cork
v -375.725 299.427 -895.399
vt 30.875 11.5916
vt 29.8375 11.5916
vt 29.8375 0
f 4/12/3 27/38/3 26/39/3 5/40/3 

vt -9.6111 0
v -389.321 248.996 -895.399
vt -9.07581 9.60615
vt -9.6111 11.5916
f 4/41/4 28/42/4 27/43/4

v -509.812 248.996 -895.399
vt -4.33206 9.60615
f 28/42/4 4/41/4 29/44/4

v -619.847 414.341 -895.399
vt 1.10155e-15 16.1158
f 4/41/4 30/45/4 29/44/4

f 30/45/4 4/41/4 3/2/4

vt -30.875 16.1158
vn -1 -6.83519e-17 -0
vt 0 16.1158
f 30/46/6 3/21/6 2/2/6 10/47/6 

usemtl Roofing_Tile_Spanish
v -664.398 393.133 -51.9603
vt -0.777083 2.02163
vn 0.429825 -0.902912 -0
v -664.398 393.133 -969.853
vt 11.2688 2.02163
v -619.847 414.341 -969.853
vt 11.2688 2.80954
vt 10.2917 2.80954
vt 0 2.80954
v -619.847 414.341 -51.9603
vt -0.777083 2.80954
f 31/48/7 32/49/7 33/50/7 30/51/7 10/52/7 34/53/7 

vt -11.2688 6.23851
vn -0.993477 -0.114036 -0
vt 0.777083 6.23851
v -668.9 432.355 -51.9603
vt 0.777083 6.86893
v -668.9 432.355 -969.853
vt -11.2688 6.86893
f 32/54/8 31/55/8 35/56/8 36/57/8 

vt -0.584667 6.19782
vt -3.67182e-16 6.53648
v 27.6947 422.694 -51.9603
vt 8.49792 6.66986
v 92.4316 393.133 -51.9603
vt 9.34748 6.19782
v 98.9735 432.355 -51.9603
vt 9.43333 6.82413
v -296.076 643.334 -51.9603
vt 4.24896 10.1931
vt -0.64375 6.82413
f 31/58/2 34/59/2 37/60/2 38/61/2 39/62/2 40/63/2 35/64/2 

vt 0 0.0843098
vn 0.0128984 -0.999917 -0
vt 0 10.4253
vt -0.777083 10.4253
vt -0.777083 0.0843098
f 10/65/9 9/66/9 37/67/9 34/68/9 

vt 0 -6.63533
vn -0.415381 -0.909647 -0
vt -10.2917 -6.63533
v 27.6947 422.694 -969.853
vt -11.2688 -6.63533
v 92.4316 393.133 -969.853
vt -11.2688 -7.77175
vt 0.777083 -7.77175
vt 0.777083 -6.63533
f 9/69/10 11/70/10 41/71/10 42/72/10 38/73/10 37/74/10 

v -293.856 569.527 -895.399
vt -10.2917 -0.990714
v -293.856 569.527 -969.853
vt -11.2687 -0.990714
vt -11.2687 -6.63533
f 11/70/10 43/75/10 44/76/10 41/77/10 

usemtl Wood_Board_Cork
vt -12.8343 22.2255
f 11/16/4 30/45/4 43/78/4

v -389.321 369.487 -895.399
vt -9.07581 14.3499
f 11/16/4 45/79/4 30/45/4

v -38.3631 368.174 -895.399
vt -22.893 14.2982
f 11/16/4 46/80/4 45/79/4

v -38.3631 302.451 -895.399
vt -22.893 11.7107
f 11/16/4 47/81/4 46/80/4

f 11/16/4 12/15/4 47/81/4

usemtl Translucent_Glass_Blue
v -104.086 236.729 -895.399
vt -203.055 91.2318
v -104.086 302.451 -895.399
vt -203.055 117.107
vt -228.93 117.107
vt -228.93 91.2318
f 48/82/4 49/83/4 47/84/4 12/85/4 

vt -177.18 91.2318
v -169.808 302.451 -895.399
vt -177.18 117.107
f 13/86/4 50/87/4 49/83/4 48/82/4 

usemtl Wood_Board_Cork
vt -17.718 11.7107
f 13/17/4 14/19/4 50/88/4

v -296.076 299.427 -895.399
vt -12.7469 11.5916
f 50/88/4 14/19/4 51/89/4

usemtl FrontColor
vt -127.469 308.75
vn -3.52781e-16 -1 -0
vt -167.751 308.75
vt -167.751 298.375
v -296.076 299.427 -869.047
vt -127.469 298.375
f 51/90/11 14/91/11 15/92/11 52/93/11 

usemtl Wood_Veneer_02
vt -10.6224 9.65968
f 15/26/4 26/37/4 52/94/4

v -353.658 178.916 -869.047
vt -8.73322 5.70591
f 15/26/4 53/95/4 26/37/4

v -350.987 178.564 -869.047
vt -8.82084 5.69437
f 15/26/4 54/96/4 53/95/4

v -348.499 177.534 -869.047
vt -8.90249 5.66055
f 15/26/4 55/97/4 54/96/4

v -346.362 175.894 -869.047
vt -8.9726 5.60675
f 15/26/4 56/98/4 55/97/4

v -344.722 173.757 -869.047
vt -9.0264 5.53663
f 15/26/4 57/99/4 56/98/4

v -343.691 171.268 -869.047
vt -9.06022 5.45498
f 15/26/4 58/100/4 57/99/4

v -343.339 168.597 -869.047
vt -9.07176 5.36736
f 15/26/4 59/101/4 58/100/4

v -343.691 165.927 -869.047
vt -9.06022 5.27974
f 15/26/4 60/102/4 59/101/4

v -344.722 163.438 -869.047
vt -9.0264 5.19809
f 15/26/4 61/103/4 60/102/4

f 15/26/4 16/25/4 61/103/4

usemtl Wood_Board_Cork
vt -10.0736 6.44084
v -363.625 171.268 -869.047
vt -10.0875 6.54598
v -362.594 173.757 -869.047
vt -10.128 6.64396
v -360.954 175.894 -869.047
vt -10.1926 6.7281
v -358.817 177.534 -869.047
vt -10.2767 6.79266
v -356.329 178.564 -869.047
vt -10.3747 6.83324
vt -10.4799 6.84709
vt -10.585 6.83324
vt -10.683 6.79266
vt -10.7671 6.7281
vt -10.8317 6.64396
vt -10.8723 6.54598
vt -10.8861 6.44084
vt -10.8723 6.33569
vt -10.8317 6.23771
vt -10.7671 6.15357
vt -10.683 6.08901
vt -10.585 6.04843
vt -10.4799 6.03459
vt -10.3747 6.04843
vt -10.2767 6.08901
vt -10.1926 6.15357
vt -10.128 6.23771
vt -10.0875 6.33569
f 25/104/4 62/105/4 63/106/4 64/107/4 65/108/4 66/109/4 53/110/4 54/111/4 55/112/4 56/113/4 57/114/4 58/115/4 59/116/4 60/117/4 61/118/4 16/119/4 17/120/4 18/121/4 19/122/4 20/123/4 21/124/4 22/125/4 23/126/4 24/127/4 

usemtl Wood_Veneer_02
vt -8.40621 5.45498
f 25/36/4 26/37/4 62/128/4

vt -8.44003 5.53663
f 62/128/4 26/37/4 63/129/4

vt -8.49383 5.60675
f 63/129/4 26/37/4 64/130/4

vt -8.56395 5.66055
f 64/130/4 26/37/4 65/131/4

vt -8.6456 5.69437
f 65/131/4 26/37/4 66/132/4

f 66/132/4 26/37/4 53/95/4

usemtl FrontColor
vt -96.111 308.75
vn 4.53185e-16 -1 -0
vt -96.111 298.375
f 27/133/12 51/90/12 52/93/12 26/134/12 

usemtl Wood_Board_Cork
v -389.321 309.242 -895.399
vt -9.07581 11.978
f 27/43/4 67/135/4 51/89/4

f 27/43/4 28/42/4 67/135/4

usemtl Translucent_Glass_Blue
vt -90.7581 96.0615
v -449.567 248.996 -895.399
vt -67.0393 96.0615
v -449.567 309.242 -895.399
vt -67.0393 119.78
vt -90.7581 119.78
f 28/136/4 68/137/4 69/138/4 67/139/4 

usemtl Wood_Board_Cork
vt -6.70393 9.60615
f 28/42/4 29/44/4 68/140/4

usemtl Translucent_Glass_Blue
v -509.812 309.242 -895.399
vt -43.3206 119.78
vt -43.3206 96.0615
f 70/141/4 69/138/4 68/137/4 29/142/4 

v -509.812 369.487 -895.399
vt -43.3206 143.499
v -449.567 369.487 -895.399
vt -67.0393 143.499
f 71/143/4 72/144/4 69/138/4 70/141/4 

usemtl Wood_Board_Cork
vt -4.33206 14.3499
vt -6.70393 14.3499
f 71/145/4 30/45/4 72/146/4

vt -4.33206 11.978
f 70/147/4 30/45/4 71/145/4

f 29/44/4 30/45/4 70/147/4

f 72/146/4 30/45/4 45/79/4

usemtl Translucent_Glass_Blue
vt -90.7581 143.499
f 67/139/4 69/138/4 72/144/4 45/148/4 

usemtl Wood_Board_Cork
v -169.808 368.174 -895.399
vt -17.718 14.2982
f 73/149/4 67/135/4 45/79/4

f 50/88/4 67/135/4 73/149/4

f 51/89/4 67/135/4 50/88/4

usemtl Translucent_Glass_Blue
v -104.086 368.174 -895.399
vt -203.055 142.982
vt -177.18 142.982
f 74/150/4 49/83/4 50/87/4 73/151/4 

vt -228.93 142.982
f 46/152/4 47/84/4 49/83/4 74/150/4 

usemtl Wood_Board_Cork
vt -20.3055 14.2982
f 74/153/4 45/79/4 46/80/4

f 73/149/4 45/79/4 74/153/4

vt -20.3055 9.12318
f 12/15/4 13/17/4 48/154/4

usemtl Roofing_Tile_Spanish
vt 10.2917 8.57479
vt 11.2688 8.57479
f 43/155/7 30/51/7 33/50/7 44/156/7 

vt -4.27809 9.01453
vt 3.67182e-16 6.53648
vt 0.584667 6.19782
vt 0.64375 6.82413
v -296.076 643.334 -969.853
vt -4.24896 10.1931
v 98.9735 432.355 -969.853
vt -9.43333 6.82413
vt -9.34748 6.19782
vt -8.49792 6.66986
f 44/157/4 33/158/4 32/159/4 36/160/4 75/161/4 76/162/4 42/163/4 41/164/4 

vt -11.2687 2.67918
vn -0.492503 0.870311 4.82543e-18
vt 0.777083 2.67918
vt 0.777083 9.51969
vt -11.2687 9.51969
f 36/165/13 35/166/13 40/167/13 75/168/13 

vt -0.777083 -6.91015
vn 0.471085 0.882088 -0
vt 11.2688 -6.91015
vt 11.2688 0.241365
vt -0.777083 0.241365
f 39/169/14 76/170/14 75/171/14 40/172/14 

vt 11.2688 8.61953
vn 0.986374 -0.164518 -0
vt -0.777083 8.61953
vt -0.777083 7.98457
vt 11.2688 7.98457
f 76/173/15 39/174/15 38/175/15 42/176/15 

