# Alias OBJ Model File
# Exported from SketchUp, (c) 2000-2012 Trimble Navigation Limited
# File units = meters

mtllib poop2.mtl

g Mesh1 Group1 Group_3_1 Model

usemtl Vegetation_Blur3
v -1.74883 0.113829 -1.02344
vt 4.70283 -87.2331
vn -0.107282 0.860304 -0.498365
v -1.79085 0.11383 -0.980662
vt 7.06366 -87.2331
vn -0.500322 0.860528 -0.0957625
v -1.64125 0.208449 -0.842539
vt 6.81599 -78.3969
vn -0.384667 0.913672 -0.13128
v -1.60715 0.208448 -0.877257
vt 4.90032 -78.397
vn -0.139751 0.913476 -0.38214
f 1/1/1 2/2/2 3/3/3 4/4/4 

v -1.8835 2.66205e-15 -1.16239
vt 4.52303 -91.269
vn -0.3618 0.861852 -0.355403
v -1.93305 1.57918e-15 -1.11195
vt 7.30696 -91.269
vt 7.07099 -82.4325
vt 4.71017 -82.4326
f 5/5/5 6/6/5 2/7/5 1/8/5 

v -1.77273 0.113829 0.503259
vt -6.3153 -54.9113
vn -0.465826 0.867732 0.173342
vt -64.7418 -54.9112
vt -69.9784 -62.0329
vn -0.629234 0.777178 0.00768726
v -1.91167 1.57918e-15 0.637922
vt -1.08082 -62.0328
vn -0.505611 0.841641 0.189731
f 7/9/6 2/10/2 6/11/7 8/12/8 

v -1.62654 0.208448 0.361578
vt -11.8224 -53.2472
vn -0.38214 0.913476 0.139751
vt -59.2322 -53.2471
vt -64.7416 -60.1599
vt -6.31514 -60.1599
f 9/13/9 3/14/3 2/15/2 7/16/6 

vt -59.232 -58.035
vt -11.8223 -58.035
v -1.47448 0.282974 0.214201
vt -17.551 -51.3047
vn -0.292534 0.950431 0.105375
v -1.48563 0.282974 -0.698866
vt -53.5012 -51.3046
vn -0.294422 0.950548 -0.0988621
f 3/17/3 9/18/9 10/19/10 11/20/11 

vt -56.6416 -35.2207
v -1.59182 0.208449 0.39567
vt -54.7259 -35.2207
vn -0.176382 0.927888 0.328503
v -1.44815 0.282974 0.240051
vt -54.9831 -26.3847
vn -0.0988621 0.950548 0.294422
vt -56.4357 -26.3848
f 9/21/9 12/22/12 13/23/13 10/24/10 

vt -56.8368 -41.858
v -1.72995 0.11383 0.545278
vt -54.476 -41.858
vn -0.163075 0.868017 0.468991
vt -54.7236 -33.0218
vt -56.6393 -33.022
f 7/25/6 14/26/14 12/27/12 9/28/9 

vt -57.0203 -48.1465
v -1.86123 7.35447e-15 0.687477
vt -54.2364 -48.1466
vn -0.178622 0.841972 0.509095
vt -54.4724 -39.31
vt -56.8332 -39.3102
f 8/29/8 15/30/15 14/31/14 7/32/6 

vt -77.8562 -0.695004
v -0.111361 6.27161e-15 0.666097
vt -8.95856 -0.694947
vn 0.189731 0.841641 0.505611
v -0.246025 0.113829 0.527152
vt -14.193 6.42656
vn 0.173342 0.867732 0.465826
vt -72.6195 6.42667
f 15/33/15 16/34/16 17/35/17 14/36/14 

vt -6.98571 4.89478
v -0.0618068 1.21823e-15 0.615654
vt -4.20178 4.89469
vn 0.509095 0.841972 0.178622
v -0.204006 0.11383 0.484371
vt -4.43775 13.7313
vn 0.468991 0.868017 0.163075
vt -6.79858 13.7311
f 16/37/16 18/38/18 19/39/19 17/40/17 

vt 1.06777 5.4274
v -0.0831865 1.94014e-15 -1.13421
vt 69.9654 5.42746
vn 0.457352 0.853543 -0.249586
v -0.222132 0.113829 -0.999551
vt 64.7309 12.549
vn 0.44504 0.869911 -0.212591
vt 6.30441 12.5491
f 18/41/18 20/42/20 21/43/21 19/44/19 

v -0.13363 2.30109e-15 -1.18377
vt 57.3416 -38.2278
vn 0.240055 0.85384 -0.461878
v -0.264913 0.11383 -1.04157
vt 57.1056 -29.3912
vn 0.2031 0.870194 -0.448902
vt 54.7448 -29.3913
vt 54.5576 -38.2277
f 22/45/22 23/46/23 21/47/21 20/48/20 

vt 72.6086 -48.7889
vt 14.1822 -48.7888
vt 8.94551 -55.9105
vt 77.8431 -55.9104
vn -0.00768726 0.777178 -0.629234
f 1/49/1 23/50/23 22/51/22 5/52/24 

vt 67.1015 -46.611
v -0.403036 0.208449 -0.891962
vt 19.6917 -46.6109
vn 0.13128 0.913672 -0.384667
vt 14.1823 -53.5237
vt 72.6088 -53.5237
f 4/53/4 24/54/25 23/55/23 1/56/1 

vt 19.6919 -50.9449
vt 67.1016 -50.945
v -1.45978 0.282974 -0.725194
vt 61.3729 -44.2146
vn -0.105375 0.950431 -0.292534
v -0.546709 0.282974 -0.736343
vt 25.4227 -44.2145
vn 0.0988621 0.950548 -0.294422
f 24/57/25 4/58/4 25/59/26 26/60/27 

vt 4.89515 -82.424
vt 6.81082 -82.4239
vt 6.55368 -73.5879
vt 5.10105 -73.588
f 4/61/4 3/62/3 11/63/11 25/64/26 

vt 5.09778 -76.8862
vt 6.55041 -76.8861
v -1.32545 0.336709 -0.550985
vt 6.28609 -68.0503
vn -0.199265 0.977716 -0.066068
v -1.30808 0.336709 -0.568675
vt 5.31006 -68.0504
vn -0.0704904 0.977662 -0.198012
f 25/65/26 11/66/11 27/67/28 28/68/29 

vt -53.5012 -55.5141
vt -17.5509 -55.5141
v -1.31796 0.336709 0.0625056
vt -23.4475 -48.9304
vn -0.198012 0.977662 0.0704904
vt -47.6025 -48.9303
f 11/69/11 10/70/10 29/71/30 27/72/28 

vt -56.437 -28.2966
vt -54.9843 -28.2965
v -1.30027 0.336709 0.0798736
vt -55.2487 -19.4608
vn -0.066068 0.977716 0.199265
vt -56.2247 -19.4609
f 10/73/10 13/74/13 30/75/31 29/76/30 

vt -61.3793 19.2243
v -0.535083 0.282974 0.228902
vt -25.4291 19.2243
vn 0.105375 0.950431 0.292534
v -0.686778 0.336709 0.0723836
vt -31.3256 25.8081
vn 0.0704904 0.977662 0.198012
vt -55.4806 25.8081
f 13/77/13 31/78/32 32/79/33 30/80/31 

vt -67.1101 12.9945
v -0.387706 0.208448 0.380965
vt -19.7004 12.9945
vn 0.139751 0.913476 0.38214
vt -25.4291 19.7248
vt -61.3793 19.7249
f 12/81/12 33/82/34 31/83/32 13/84/13 

vt -72.6195 6.324
vt -14.1931 6.32399
vt -19.7004 13.2367
vt -67.1101 13.2368
vn 0.0065818 0.84238 0.538844
f 14/85/14 17/86/17 33/87/34 12/88/35 

vt -6.79758 13.9455
vt -4.43676 13.9455
v -0.353614 0.208449 0.346248
vt -4.68442 22.7818
vn 0.384667 0.913672 0.13128
vt -6.60009 22.7816
f 17/89/17 19/90/19 34/91/36 33/92/34 

vt 6.30438 12.9602
vt 64.7309 12.9602
v -0.368319 0.208448 -0.857869
vt 59.2236 19.8729
vn 0.38214 0.913476 -0.139751
vt 11.8138 19.873
f 19/93/19 21/94/21 35/95/37 34/96/36 

vt 54.742 -31.4296
vt 57.1029 -31.4296
vt 56.8552 -22.5933
vt 54.9395 -22.5935
f 21/97/21 23/98/23 24/99/25 35/100/37 

f 20/48/20 22/45/22 23/46/23 21/47/21 

vt 54.9379 -24.3789
vt 56.8535 -24.3788
vt 56.5964 -15.5428
v -0.520381 0.282974 -0.710492
vt 55.1438 -15.543
vn 0.292534 0.950431 -0.105375
f 35/101/37 24/102/25 26/103/27 36/104/38 

vt 55.143 -17.1412
vt 56.5956 -17.1412
v -0.694591 0.336709 -0.576165
vt 56.3313 -8.30538
vn 0.066068 0.977716 -0.199265
v -0.6769 0.336709 -0.558797
vt 55.3552 -8.30549
vn 0.198012 0.977662 -0.0704904
f 36/105/38 26/106/27 37/107/39 38/108/40 

vt 25.4227 -48.0537
vt 61.3729 -48.0538
vt 55.4764 -41.47
vt 31.3214 -41.4699
f 26/109/27 25/110/26 28/111/29 37/112/39 

vt 31.3214 -44.7308
vt 55.4764 -44.7308
v -1.15348 0.369152 -0.409162
vt 49.467 -38.2498
vn -0.0353104 0.994367 -0.09994
v -0.8453 0.369152 -0.412925
vt 37.3329 -38.2498
vn 0.0330755 0.994381 -0.100563
f 37/113/39 28/114/29 39/115/41 40/116/42 

vt 5.30874 -70.6713
vt 6.28477 -70.6712
v -1.16221 0.369152 -0.400275
vt 6.01554 -61.8356
vn -0.100563 0.994381 -0.0330755
vt 5.52524 -61.8356
f 28/117/29 27/118/28 41/119/43 39/120/41 

vt -47.6024 -52.4544
vt -23.4475 -52.4545
v -1.15845 0.369152 -0.0920913
vt -29.4568 -45.9735
vn -0.09994 0.994367 0.0353104
vt -41.591 -45.9735
f 27/121/28 29/122/30 42/123/44 41/124/43 

vt -56.2251 -21.1507
vt -55.2491 -21.1506
v -1.14956 0.369152 -0.0833668
vt -55.5183 -12.315
vn -0.0330755 0.994381 0.100563
vt -56.0086 -12.315
f 29/125/30 30/126/31 43/127/45 42/128/44 

vt -55.4806 24.9215
vt -31.3257 24.9215
v -0.841375 0.369152 -0.0871291
vt -37.335 31.4024
vn 0.0353104 0.994367 0.09994
vt -49.4692 31.4025
f 30/129/31 32/130/33 44/131/46 43/132/45 

vt -6.17882 39.7368
v -0.66941 0.336709 0.0546933
vt -5.20279 39.7369
vn 0.199265 0.977716 0.066068
v -0.832651 0.369152 -0.096016
vt -5.47202 48.5725
vn 0.100563 0.994381 0.0330755
vt -5.96232 48.5725
f 32/133/33 45/134/47 46/135/48 44/136/46 

vt -6.39179 31.4483
v -0.509233 0.282974 0.202575
vt -4.93915 31.4484
vn 0.294422 0.950548 0.0988621
vt -5.20348 40.2842
vt -6.17951 40.2841
f 31/137/32 47/138/49 45/139/47 32/140/33 

vt -6.59887 22.8243
vt -4.6832 22.8244
vt -4.94034 31.6604
vt -6.39297 31.6602
f 33/141/34 34/142/36 47/143/49 31/144/32 

vt 11.8138 20.0846
vt 59.2235 20.0845
vt 53.4948 26.8149
vt 17.5446 26.815
f 34/145/36 35/146/37 36/147/38 47/148/49 

vt 17.5446 26.6847
vt 53.4948 26.6846
vt 47.5982 33.2684
vt 23.4433 33.2685
f 47/149/49 36/150/38 38/151/40 45/152/47 

vt 23.4433 32.6452
vt 47.5982 32.6451
v -0.836413 0.369152 -0.4042
vt 41.5889 39.1261
vn 0.09994 0.994367 -0.0353104
vt 29.4547 39.1262
f 45/153/47 38/154/40 48/155/50 46/156/48 

vt 55.355 -9.7838
vt 56.3311 -9.78371
vt 56.0618 -0.948089
vt 55.5715 -0.948146
f 38/157/40 37/158/39 40/159/42 48/160/50 

vt 55.5717 -2.37247
vt 56.062 -2.37238
v -0.99743 0.38 -0.248146
vt 55.7898 6.46314
vn 7.98116e-16 1 -9.06574e-15
f 48/161/50 40/162/42 49/163/51

vt 37.3328 -40.8783
vt 49.467 -40.8784
vt 43.401 -34.4504
vn 7.964e-16 1 -9.06642e-15
f 40/164/42 39/165/41 49/166/52

vt 5.52862 -63.837
vt 6.01892 -63.8369
vt 5.7467 -55.0014
vn 7.97922e-16 1 -9.06746e-15
f 39/167/41 41/168/43 49/169/53

vt -41.5911 -48.739
vt -29.4569 -48.739
vt -35.5229 -42.311
f 41/170/43 42/171/44 49/172/53

vt -56.0078 -13.8524
vt -55.5175 -13.8523
vt -55.7898 -5.01682
vn 7.97011e-16 1 -9.0678e-15
f 42/173/44 43/174/45 49/175/54

vt -49.4691 30.0105
vt -37.335 30.0104
vt -43.401 36.4384
vn 7.97178e-16 1 -9.06825e-15
f 43/176/45 44/177/46 49/178/55

vt -5.96478 47.6121
vt -5.47448 47.6122
vt -5.7467 56.4477
vn 7.98786e-16 1 -9.06756e-15
f 44/179/46 46/180/48 49/181/56

vt 29.4548 37.8712
vt 41.5889 37.8711
vt 35.5229 44.2991
vn 7.97862e-16 1 -9.068e-15
f 46/182/48 48/183/50 49/184/57

