{
    "asset" : {
        "generator" : "Khronos glTF Blender I/O v1.2.75",
        "version" : "2.0"
    },
    "scene" : 0,
    "scenes" : [
        {
            "name" : "Scene",
            "nodes" : [
                0,
                1,
                2
            ]
        }
    ],
    "nodes" : [
        {
            "name" : "Light",
            "rotation" : [
                0.16907575726509094,
                0.7558803558349609,
                -0.27217137813568115,
                0.570947527885437
            ],
            "translation" : [
                4.076245307922363,
                5.903861999511719,
                -1.0054539442062378
            ]
        },
        {
            "name" : "Camera",
            "rotation" : [
                0.483536034822464,
                0.33687159419059753,
                -0.20870360732078552,
                0.7804827094078064
            ],
            "translation" : [
                7.358891487121582,
                4.958309173583984,
                6.925790786743164
            ]
        },
        {
            "mesh" : 0,
            "name" : "trough",
            "rotation" : [
                0.7071068286895752,
                0,
                0,
                0.7071067094802856
            ],
            "scale" : [
                0.10000000149011612,
                0.10000000149011612,
                0.10000000149011612
            ]
        }
    ],
    "materials" : [
        {
            "doubleSided" : true,
            "emissiveFactor" : [
                0,
                0,
                0
            ],
            "name" : "Metal_Rough",
            "pbrMetallicRoughness" : {
                "baseColorTexture" : {
                    "index" : 0,
                    "texCoord" : 0
                },
                "metallicFactor" : 0,
                "roughnessFactor" : 1
            }
        },
        {
            "doubleSided" : true,
            "emissiveFactor" : [
                0,
                0,
                0
            ],
            "name" : "FrontColor",
            "pbrMetallicRoughness" : {
                "baseColorFactor" : [
                    1,
                    1,
                    1,
                    1
                ],
                "metallicFactor" : 0,
                "roughnessFactor" : 1
            }
        },
        {
            "doubleSided" : true,
            "emissiveFactor" : [
                0,
                0,
                0
            ],
            "name" : "Color_B19",
            "pbrMetallicRoughness" : {
                "baseColorFactor" : [
                    0.4000000059604645,
                    0.2784309983253479,
                    0.23921599984169006,
                    1
                ],
                "metallicFactor" : 0,
                "roughnessFactor" : 1
            }
        }
    ],
    "meshes" : [
        {
            "name" : "trough",
            "primitives" : [
                {
                    "attributes" : {
                        "POSITION" : 0,
                        "NORMAL" : 1,
                        "TEXCOORD_0" : 2
                    },
                    "indices" : 3,
                    "material" : 0
                },
                {
                    "attributes" : {
                        "POSITION" : 4,
                        "NORMAL" : 5,
                        "TEXCOORD_0" : 6
                    },
                    "indices" : 7,
                    "material" : 1
                },
                {
                    "attributes" : {
                        "POSITION" : 8,
                        "NORMAL" : 9,
                        "TEXCOORD_0" : 10
                    },
                    "indices" : 11,
                    "material" : 2
                }
            ]
        }
    ],
    "textures" : [
        {
            "source" : 0
        }
    ],
    "images" : [
        {
            "bufferView" : 4,
            "mimeType" : "image/jpeg",
            "name" : "Metal_Rough"
        }
    ],
    "accessors" : [
        {
            "bufferView" : 0,
            "componentType" : 5126,
            "count" : 610,
            "max" : [
                68.658203125,
                0,
                0
            ],
            "min" : [
                -3.6827201071933536e-15,
                -175.43699645996094,
                -34.74720001220703
            ],
            "type" : "VEC3"
        },
        {
            "bufferView" : 1,
            "componentType" : 5126,
            "count" : 610,
            "type" : "VEC3"
        },
        {
            "bufferView" : 2,
            "componentType" : 5126,
            "count" : 610,
            "type" : "VEC2"
        },
        {
            "bufferView" : 3,
            "componentType" : 5123,
            "count" : 1200,
            "type" : "SCALAR"
        },
        {
            "bufferView" : 5,
            "componentType" : 5126,
            "count" : 150,
            "max" : [
                68.658203125,
                0,
                0
            ],
            "min" : [
                -3.6827201071933536e-15,
                -175.43699645996094,
                -31.851600646972656
            ],
            "type" : "VEC3"
        },
        {
            "bufferView" : 6,
            "componentType" : 5126,
            "count" : 150,
            "type" : "VEC3"
        },
        {
            "bufferView" : 7,
            "componentType" : 5126,
            "count" : 150,
            "type" : "VEC2"
        },
        {
            "bufferView" : 8,
            "componentType" : 5123,
            "count" : 444,
            "type" : "SCALAR"
        },
        {
            "bufferView" : 9,
            "componentType" : 5126,
            "count" : 50,
            "max" : [
                67.31279754638672,
                -1.3482400178909302,
                -30.76569938659668
            ],
            "min" : [
                1.3453600406646729,
                -174.08900451660156,
                -30.76569938659668
            ],
            "type" : "VEC3"
        },
        {
            "bufferView" : 10,
            "componentType" : 5126,
            "count" : 50,
            "type" : "VEC3"
        },
        {
            "bufferView" : 11,
            "componentType" : 5126,
            "count" : 50,
            "type" : "VEC2"
        },
        {
            "bufferView" : 12,
            "componentType" : 5123,
            "count" : 144,
            "type" : "SCALAR"
        }
    ],
    "bufferViews" : [
        {
            "buffer" : 0,
            "byteLength" : 7320,
            "byteOffset" : 0
        },
        {
            "buffer" : 0,
            "byteLength" : 7320,
            "byteOffset" : 7320
        },
        {
            "buffer" : 0,
            "byteLength" : 4880,
            "byteOffset" : 14640
        },
        {
            "buffer" : 0,
            "byteLength" : 2400,
            "byteOffset" : 19520
        },
        {
            "buffer" : 0,
            "byteLength" : 1218,
            "byteOffset" : 21920
        },
        {
            "buffer" : 0,
            "byteLength" : 1800,
            "byteOffset" : 23140
        },
        {
            "buffer" : 0,
            "byteLength" : 1800,
            "byteOffset" : 24940
        },
        {
            "buffer" : 0,
            "byteLength" : 1200,
            "byteOffset" : 26740
        },
        {
            "buffer" : 0,
            "byteLength" : 888,
            "byteOffset" : 27940
        },
        {
            "buffer" : 0,
            "byteLength" : 600,
            "byteOffset" : 28828
        },
        {
            "buffer" : 0,
            "byteLength" : 600,
            "byteOffset" : 29428
        },
        {
            "buffer" : 0,
            "byteLength" : 400,
            "byteOffset" : 30028
        },
        {
            "buffer" : 0,
            "byteLength" : 288,
            "byteOffset" : 30428
        }
    ],
    "buffers" : [
        {
            "byteLength" : 30716,
            "uri" : "data:application/octet-stream;base64,"
        }
    ]
}
