# Alias OBJ Model File
# Exported from SketchUp, (c) 2000-2012 Trimble Navigation Limited
# File units = centimeters

mtllib wooddoor.mtl

g Mesh1 Fence_Wood__2_1 Model

usemtl Wood_Veneer_02
v 354.425 1.77771e-14 121.572
vt -11.1425 2.44332
vn -0 -1 -0
v 354.425 1.77771e-14 126.378
vt -10.8145 2.44332
v 347.216 1.77771e-14 126.378
vt -10.8145 2.93545
v 347.216 1.77771e-14 121.572
vt -11.1425 2.93545
f 1/1/1 2/2/1 3/3/1 4/4/1 

vt 10.8145 -1.18424e-15
vn 1 0 -1.11972e-07
vt 11.1425 -1.18424e-15
v 354.425 62.478 121.572
vt 11.1425 4.26509
v 354.425 62.478 126.378
vt 10.8145 4.26509
f 2/5/2 1/6/2 5/7/2 6/8/2 

vt 2.44332 -1.18424e-15
vn -1.11972e-07 0 -1
v 352.503 7.209 121.572
vt 2.57455 0.492126
vt 2.44332 4.26509
f 1/9/3 7/10/3 5/11/3

vt 2.93545 -1.18424e-15
f 7/10/3 1/9/3 4/12/3

v 349.138 7.209 121.572
vt 2.80421 0.492126
f 7/10/3 4/12/3 8/13/3

v 349.138 14.418 121.572
vt 2.80421 0.984252
f 8/13/3 4/12/3 9/14/3

v 349.138 19.224 121.572
vt 2.80421 1.31234
f 9/14/3 4/12/3 10/15/3

v 349.138 24.03 121.572
vt 2.80421 1.64042
f 10/15/3 4/12/3 11/16/3

v 349.138 40.851 121.572
vt 2.80421 2.78871
f 11/16/3 4/12/3 12/17/3

v 349.138 45.657 121.572
vt 2.80421 3.1168
f 12/17/3 4/12/3 13/18/3

v 349.138 50.463 121.572
vt 2.80421 3.44488
f 13/18/3 4/12/3 14/19/3

v 349.138 57.672 121.572
vt 2.80421 3.93701
f 14/19/3 4/12/3 15/20/3

v 347.216 62.478 121.572
vt 2.93545 4.26509
f 16/21/3 15/20/3 4/12/3

v 352.503 57.672 121.572
vt 2.57455 3.93701
f 16/21/3 17/22/3 15/20/3

f 5/11/3 17/22/3 16/21/3

f 17/22/3 5/11/3 7/10/3

v 352.503 14.418 121.572
vt 2.57455 0.984252
f 17/22/3 7/10/3 18/23/3

vt 11.1425 0.984252
vt 11.1425 0.492126
v 352.503 7.209 25.4521
vt 17.7042 0.492126
v 352.503 14.418 25.4521
vt 17.7042 0.984252
f 18/24/2 7/25/2 19/26/2 20/27/2 

vt -17.7042 2.57455
vt -11.1425 2.57455
vt -11.1425 2.80421
v 349.138 7.209 25.4521
vt -17.7042 2.80421
f 19/28/1 7/29/1 8/30/1 21/31/1 

vt -11.1425 0.492126
vn -1 0 1.11972e-07
vt -11.1425 0.984252
v 349.138 14.418 25.4521
vt -17.7042 0.984252
vt -17.7042 0.492126
f 8/32/4 9/33/4 22/34/4 21/35/4 

vt 11.1425 2.80421
vn 0 1 -0
vt 11.1425 2.57455
vt 17.7042 2.57455
vt 17.7042 2.80421
f 9/36/5 18/37/5 20/38/5 22/39/5 

v 352.503 19.224 121.572
vt 2.57455 1.31234
f 9/14/3 23/40/3 18/23/3

f 23/40/3 9/14/3 10/15/3

usemtl FrontColor
v 352.503 24.03 121.572
vt 30.8946 19.685
vt 30.8946 15.748
vt 33.6505 15.748
vt 33.6505 19.685
f 24/41/3 23/42/3 10/43/3 11/44/3 

usemtl Wood_Veneer_02
vt 2.57455 1.64042
f 17/22/3 23/40/3 24/45/3

f 17/22/3 18/23/3 23/40/3

usemtl FrontColor
v 352.503 40.851 25.4521
vt -212.451 33.4646
v 352.503 32.4405 62.8321
vt -181.83 26.5748
v 352.503 30.0375 73.5121
vt -173.081 24.6063
vt -133.711 15.748
vt -133.711 19.685
v 352.503 32.4405 84.1921
vt -164.332 26.5748
v 352.503 34.8435 73.5121
vt -173.081 28.5433
v 352.503 45.657 25.4521
vt -212.451 37.4016
f 25/46/4 26/47/4 27/48/4 23/49/4 24/50/4 28/51/4 29/52/4 30/53/4 

v 349.138 40.851 25.4521
vt -33.6505 214.615
vn 2.45791e-08 0.97561 0.219512
v 349.138 32.4405 62.8321
vt -33.6505 183.228
vt -30.8946 183.228
vt -30.8946 214.615
f 31/54/6 32/55/6 26/56/6 25/57/6 

v 349.138 45.657 25.4521
vt 212.451 37.4016
v 349.138 34.8435 73.5121
vt 173.081 28.5433
v 349.138 32.4405 84.1921
vt 164.332 26.5748
vt 133.711 19.685
vt 133.711 15.748
v 349.138 30.0375 73.5121
vt 173.081 24.6063
vt 181.83 26.5748
vt 212.451 33.4646
f 33/58/2 34/59/2 35/60/2 11/61/2 10/62/2 36/63/2 32/64/2 31/65/2 

vt 30.8946 175.125
vn -2.45791e-08 -0.97561 -0.219512
vt 33.6505 175.125
vt 33.6505 215.479
vt 30.8946 215.479
f 29/66/7 34/67/7 33/68/7 30/69/7 

vt -33.6505 -162.594
vn 2.45791e-08 -0.97561 0.219512
vt -30.8946 -162.594
v 352.503 45.657 121.572
vt -30.8946 -122.239
vt -33.6505 -122.239
f 34/70/8 29/71/8 37/72/8 13/73/8 

vt 30.8946 166.157
vt 33.6505 166.157
f 29/66/7 28/74/7 35/75/7 34/67/7 

vt -133.711 37.4016
v 352.503 40.851 121.572
vt -133.711 33.4646
f 37/76/4 29/52/4 28/51/4 38/77/4 

vt 30.8946 -154.49
vn -2.45791e-08 0.97561 -0.219512
vt 33.6505 -154.49
vt 33.6505 -123.103
vt 30.8946 -123.103
f 28/78/9 35/79/9 12/80/9 38/81/9 

vt 33.6505 134.77
vt 30.8946 134.77
f 11/82/7 35/75/7 28/74/7 24/83/7 

usemtl Wood_Veneer_02
vt 2.57455 2.78871
f 11/16/3 38/84/3 24/45/3

f 38/84/3 11/16/3 12/17/3

usemtl FrontColor
vt 30.8946 37.4016
vt 30.8946 33.4646
vt 33.6505 33.4646
vt 33.6505 37.4016
f 37/85/3 38/86/3 12/87/3 13/88/3 

usemtl Wood_Veneer_02
vt 2.57455 3.1168
f 17/22/3 38/84/3 37/89/3

f 17/22/3 24/45/3 38/84/3

v 352.503 50.463 121.572
vt 2.57455 3.44488
f 17/22/3 37/89/3 39/90/3

f 13/18/3 39/90/3 37/89/3

f 39/90/3 13/18/3 14/19/3

v 349.138 50.463 25.4521
v 352.503 50.463 25.4521
f 39/29/1 14/30/1 40/31/1 41/28/1 

vt -11.1425 3.44488
vt -11.1425 3.93701
v 349.138 57.672 25.4521
vt -17.7042 3.93701
vt -17.7042 3.44488
f 14/91/4 15/92/4 42/93/4 40/94/4 

v 352.503 57.672 25.4521
f 15/36/5 17/37/5 43/38/5 42/39/5 

vt 11.1425 3.93701
vt 11.1425 3.44488
vt 17.7042 3.44488
vt 17.7042 3.93701
f 17/95/2 39/96/2 41/97/2 43/98/2 

usemtl FrontColor
vt -30.8946 41.3386
vn 1.11972e-07 -3.2085e-15 1
vt -30.8946 47.2441
vt -33.6505 47.2441
vt -33.6505 41.3386
f 41/99/10 43/100/10 42/101/10 40/102/10 

vt 133.711 33.4646
vt 133.711 37.4016
f 12/103/2 35/60/2 34/59/2 13/104/2 

vt -33.6505 37.4016
vn 1.11972e-07 1.44382e-14 1
vt -33.6505 33.4646
vt -30.8946 33.4646
vt -30.8946 37.4016
f 33/105/11 31/106/11 25/107/11 30/108/11 

vt -30.8946 174.261
vt -33.6505 174.261
vt -33.6505 133.906
vt -30.8946 133.906
f 27/109/6 36/110/6 10/111/6 23/112/6 

vt 33.6505 -163.458
vt 30.8946 -163.458
v 352.503 19.224 25.4521
vt 30.8946 -203.812
v 349.138 19.224 25.4521
vt 33.6505 -203.812
f 36/113/9 27/114/9 44/115/9 45/116/9 

f 27/109/6 26/56/6 32/55/6 36/110/6 

vt -212.451 15.748
v 352.503 24.03 25.4521
vt -212.451 19.685
f 44/117/4 27/48/4 26/47/4 46/118/4 

vt -30.8946 -171.561
vn 2.45792e-08 -0.97561 0.219512
vt -33.6505 -171.561
v 349.138 24.03 25.4521
vt -33.6505 -202.948
vt -30.8946 -202.948
f 26/119/12 32/120/12 47/121/12 46/122/12 

vt 212.451 19.685
vt 212.451 15.748
f 47/123/2 32/64/2 36/63/2 45/124/2 

vt -33.6505 19.685
vn 1.11972e-07 1.08287e-14 1
vt -33.6505 15.748
vt -30.8946 15.748
vt -30.8946 19.685
f 47/125/13 45/126/13 44/127/13 46/128/13 

vt -30.8946 5.90551
vn 1.11972e-07 -1.60425e-15 1
vt -30.8946 11.811
vt -33.6505 11.811
vt -33.6505 5.90551
f 19/129/14 20/130/14 22/131/14 21/132/14 

vt 133.711 29.3198
vt 133.711 35.2253
v 350.821 62.478 123.975
vt 131.742 32.2726
f 5/133/5 16/134/5 48/135/5

usemtl Wood_Veneer_02
vt 2.93545 -4.86309
vn -7.91759e-08 0.707107 -0.707107
v 350.821 64.881 123.975
vt 2.68938 -4.6311
vt 2.44332 -4.86309
f 16/136/15 49/137/15 5/138/15

usemtl FrontColor
vt -99.9297 53.1496
vn -0.5547 0 0.83205
vt -103.479 51.1811
vt -99.9297 51.1811
f 49/139/16 16/140/16 48/141/16

usemtl Wood_Veneer_02
v 347.216 62.478 126.378
vt -10.8145 -0.076591
vn -0.5547 0.83205 6.21107e-08
vt -10.9785 0.21914
vt -11.1425 -0.076591
f 50/142/17 49/143/17 16/144/17

usemtl FrontColor
vt 46.2249 53.1496
vn 0.5547 0 0.83205
vt 42.6761 51.1811
vt 46.2249 51.1811
f 49/145/18 50/146/18 48/147/18

usemtl Wood_Veneer_02
vt -2.68938 10.8948
vn 7.91759e-08 0.707107 0.707107
vt -2.93545 10.6629
vt -2.44332 10.6629
f 49/148/19 50/149/19 6/150/19

vt -2.44332 4.26509
vn 1.11972e-07 3.4264e-32 1
vt -2.93545 4.26509
vt -2.93545 -1.18424e-15
vt -2.44332 -1.18424e-15
f 6/151/20 50/152/20 3/153/20 2/154/20 

usemtl FrontColor
vt 129.774 35.2253
vt 129.774 29.3198
f 50/155/5 6/156/5 48/135/5

f 5/133/5 48/135/5 6/156/5

vt 49.7737 51.1811
vn 0.5547 1.31242e-16 0.83205
f 5/157/21 49/145/21 48/147/21

usemtl Wood_Veneer_02
vt 10.9785 4.69454
vn 0.5547 0.83205 -6.21107e-08
vt 10.8145 4.39881
vt 11.1425 4.39881
f 49/158/22 6/159/22 5/160/22

usemtl FrontColor
vt -96.381 51.1811
vn -0.5547 -1.31242e-16 0.83205
f 6/161/23 49/139/23 48/141/23

f 50/155/5 48/135/5 16/134/5

usemtl Wood_Veneer_02
vt -11.1425 -1.18424e-15
vt -10.8145 -1.18424e-15
vt -10.8145 4.26509
vt -11.1425 4.26509
f 4/162/4 3/163/4 50/164/4 16/165/4 

